<?xml version="1.0" encoding="UTF-8" standalone="no"?>
<svg width="400" height="400" viewBox="0 0 400 400" xmlns="http://www.w3.org/2000/svg">
  <!-- Pot -->
  <path d="M150,350 L250,350 L270,250 L130,250 Z" fill="#b25d25" stroke="#8b4513" stroke-width="2"/>
  <ellipse cx="200" cy="250" rx="70" ry="10" fill="#8b4513" stroke="#5d3a1a" stroke-width="1"/>
  
  <!-- Soil -->
  <ellipse cx="200" cy="250" rx="65" ry="8" fill="#5d3a1a"/>
  
  <!-- Trunk -->
  <path d="M200,250 C195,220 190,200 195,170 C200,140 205,130 200,100" fill="none" stroke="#8b4513" stroke-width="8" stroke-linecap="round"/>
  
  <!-- Branches -->
  <path d="M200,170 C220,160 240,165 250,150" fill="none" stroke="#8b4513" stroke-width="5" stroke-linecap="round"/>
  <path d="M200,170 C180,160 160,165 150,150" fill="none" stroke="#8b4513" stroke-width="5" stroke-linecap="round"/>
  <path d="M200,130 C220,120 235,125 245,110" fill="none" stroke="#8b4513" stroke-width="5" stroke-linecap="round"/>
  <path d="M200,130 C180,120 165,125 155,110" fill="none" stroke="#8b4513" stroke-width="5" stroke-linecap="round"/>
  
  <!-- Leaves -->
  <!-- Right side leaves -->
  <path d="M250,150 C270,145 280,130 275,115 C270,100 255,95 240,105 C235,110 240,125 250,150" fill="#2e8b57" stroke="#006400" stroke-width="1"/>
  <path d="M245,110 C265,105 275,90 270,75 C265,60 250,55 235,65 C230,70 235,85 245,110" fill="#2e8b57" stroke="#006400" stroke-width="1"/>
  <path d="M230,140 C250,135 260,120 255,105 C250,90 235,85 220,95 C215,100 220,115 230,140" fill="#2e8b57" stroke="#006400" stroke-width="1"/>
  
  <!-- Left side leaves -->
  <path d="M150,150 C130,145 120,130 125,115 C130,100 145,95 160,105 C165,110 160,125 150,150" fill="#2e8b57" stroke="#006400" stroke-width="1"/>
  <path d="M155,110 C135,105 125,90 130,75 C135,60 150,55 165,65 C170,70 165,85 155,110" fill="#2e8b57" stroke="#006400" stroke-width="1"/>
  <path d="M170,140 C150,135 140,120 145,105 C150,90 165,85 180,95 C185,100 180,115 170,140" fill="#2e8b57" stroke="#006400" stroke-width="1"/>
  
  <!-- Top leaves -->
  <path d="M200,100 C220,90 230,70 225,55 C220,40 205,35 190,45 C185,50 190,65 200,100" fill="#2e8b57" stroke="#006400" stroke-width="1"/>
  <path d="M200,100 C180,90 170,70 175,55 C180,40 195,35 210,45 C215,50 210,65 200,100" fill="#2e8b57" stroke="#006400" stroke-width="1"/>
  
  <!-- Fruits (Oranges) -->
  <circle cx="260" cy="130" r="15" fill="#ff9500" stroke="#e67e00" stroke-width="1"/>
  <circle cx="240" cy="95" r="15" fill="#ff9500" stroke="#e67e00" stroke-width="1"/>
  <circle cx="210" cy="75" r="15" fill="#ff9500" stroke="#e67e00" stroke-width="1"/>
  <circle cx="140" cy="130" r="15" fill="#ff9500" stroke="#e67e00" stroke-width="1"/>
  <circle cx="160" cy="95" r="15" fill="#ff9500" stroke="#e67e00" stroke-width="1"/>
  <circle cx="190" cy="75" r="15" fill="#ff9500" stroke="#e67e00" stroke-width="1"/>
  
  <!-- Fruit details -->
  <circle cx="260" cy="130" r="2" fill="#e67e00"/>
  <circle cx="240" cy="95" r="2" fill="#e67e00"/>
  <circle cx="210" cy="75" r="2" fill="#e67e00"/>
  <circle cx="140" cy="130" r="2" fill="#e67e00"/>
  <circle cx="160" cy="95" r="2" fill="#e67e00"/>
  <circle cx="190" cy="75" r="2" fill="#e67e00"/>
  
  <!-- Fruit stems -->
  <path d="M260,115 C260,110 255,110 255,115" fill="none" stroke="#8b4513" stroke-width="2" stroke-linecap="round"/>
  <path d="M240,80 C240,75 235,75 235,80" fill="none" stroke="#8b4513" stroke-width="2" stroke-linecap="round"/>
  <path d="M210,60 C210,55 205,55 205,60" fill="none" stroke="#8b4513" stroke-width="2" stroke-linecap="round"/>
  <path d="M140,115 C140,110 145,110 145,115" fill="none" stroke="#8b4513" stroke-width="2" stroke-linecap="round"/>
  <path d="M160,80 C160,75 165,75 165,80" fill="none" stroke="#8b4513" stroke-width="2" stroke-linecap="round"/>
  <path d="M190,60 C190,55 195,55 195,60" fill="none" stroke="#8b4513" stroke-width="2" stroke-linecap="round"/>
  
  <!-- Small leaf details -->
  <path d="M255,115 C260,110 265,112 260,118" fill="none" stroke="#006400" stroke-width="1" stroke-linecap="round"/>
  <path d="M235,80 C240,75 245,77 240,83" fill="none" stroke="#006400" stroke-width="1" stroke-linecap="round"/>
  <path d="M205,60 C210,55 215,57 210,63" fill="none" stroke="#006400" stroke-width="1" stroke-linecap="round"/>
  <path d="M145,115 C140,110 135,112 140,118" fill="none" stroke="#006400" stroke-width="1" stroke-linecap="round"/>
  <path d="M165,80 C160,75 155,77 160,83" fill="none" stroke="#006400" stroke-width="1" stroke-linecap="round"/>
  <path d="M195,60 C190,55 185,57 190,63" fill="none" stroke="#006400" stroke-width="1" stroke-linecap="round"/>
  
  <!-- Window frame background -->
  <rect x="50" y="20" width="300" height="200" fill="#87ceeb" opacity="0.3"/>
  
  <!-- Sun -->
  <circle cx="80" cy="50" r="20" fill="#ffff00" stroke="#ff8c00" stroke-width="2"/>
  <path d="M80,20 L80,10" stroke="#ff8c00" stroke-width="2"/>
  <path d="M80,80 L80,90" stroke="#ff8c00" stroke-width="2"/>
  <path d="M50,50 L40,50" stroke="#ff8c00" stroke-width="2"/>
  <path d="M110,50 L120,50" stroke="#ff8c00" stroke-width="2"/>
  <path d="M60,30 L50,20" stroke="#ff8c00" stroke-width="2"/>
  <path d="M100,70 L110,80" stroke="#ff8c00" stroke-width="2"/>
  <path d="M60,70 L50,80" stroke="#ff8c00" stroke-width="2"/>
  <path d="M100,30 L110,20" stroke="#ff8c00" stroke-width="2"/>
</svg>