<?xml version="1.0" encoding="UTF-8"?>
<svg width="400" height="400" viewBox="0 0 400 400" xmlns="http://www.w3.org/2000/svg">
  <!-- Background with window frame -->
  <rect x="0" y="0" width="400" height="400" fill="#f0f8ff" />
  <rect x="20" y="20" width="360" height="360" fill="#e6f7ff" stroke="#a0d6b4" stroke-width="5" rx="10" ry="10" />
  
  <!-- Sun -->
  <circle cx="320" cy="80" r="30" fill="#ffdd55" />
  <g opacity="0.6">
    <line x1="320" y1="30" x2="320" y2="10" stroke="#ffdd55" stroke-width="3" />
    <line x1="320" y1="150" x2="320" y2="130" stroke="#ffdd55" stroke-width="3" />
    <line x1="270" y1="80" x2="250" y2="80" stroke="#ffdd55" stroke-width="3" />
    <line x1="390" y1="80" x2="370" y2="80" stroke="#ffdd55" stroke-width="3" />
    <line x1="285" y1="45" x2="270" y2="30" stroke="#ffdd55" stroke-width="3" />
    <line x1="355" y1="115" x2="370" y2="130" stroke="#ffdd55" stroke-width="3" />
    <line x1="285" y1="115" x2="270" y2="130" stroke="#ffdd55" stroke-width="3" />
    <line x1="355" y1="45" x2="370" y2="30" stroke="#ffdd55" stroke-width="3" />
  </g>
  
  <!-- Pot -->
  <path d="M150,350 L250,350 L270,250 L130,250 Z" fill="#8B4513" />
  <ellipse cx="200" cy="250" rx="70" ry="15" fill="#654321" />
  
  <!-- Soil -->
  <ellipse cx="200" cy="250" rx="65" ry="10" fill="#3a2a1a" />
  
  <!-- Plant stem -->
  <path d="M200,250 C200,250 190,200 200,150 C210,100 200,80 200,80" fill="none" stroke="#2e8b57" stroke-width="4" />
  
  <!-- Curry leaves branches -->
  <g>
    <!-- Branch 1 -->
    <path d="M200,230 C220,210 240,200 260,210" fill="none" stroke="#2e8b57" stroke-width="2" />
    <!-- Branch 2 -->
    <path d="M200,200 C180,180 160,170 140,180" fill="none" stroke="#2e8b57" stroke-width="2" />
    <!-- Branch 3 -->
    <path d="M200,170 C220,150 240,140 250,150" fill="none" stroke="#2e8b57" stroke-width="2" />
    <!-- Branch 4 -->
    <path d="M200,140 C180,120 160,110 150,120" fill="none" stroke="#2e8b57" stroke-width="2" />
    <!-- Branch 5 -->
    <path d="M200,110 C210,90 220,80 230,85" fill="none" stroke="#2e8b57" stroke-width="2" />
    <!-- Branch 6 -->
    <path d="M200,110 C190,90 180,80 170,85" fill="none" stroke="#2e8b57" stroke-width="2" />
  </g>
  
  <!-- Curry leaves -->
  <g>
    <!-- Leaves on branch 1 -->
    <ellipse cx="225" cy="215" rx="8" ry="3" fill="#006400" transform="rotate(-20,225,215)" />
    <ellipse cx="235" cy="210" rx="8" ry="3" fill="#006400" transform="rotate(-20,235,210)" />
    <ellipse cx="245" cy="208" rx="8" ry="3" fill="#006400" transform="rotate(-15,245,208)" />
    <ellipse cx="255" cy="209" rx="8" ry="3" fill="#006400" transform="rotate(-10,255,209)" />
    
    <!-- Leaves on branch 2 -->
    <ellipse cx="175" cy="185" rx="8" ry="3" fill="#006400" transform="rotate(20,175,185)" />
    <ellipse cx="165" cy="180" rx="8" ry="3" fill="#006400" transform="rotate(20,165,180)" />
    <ellipse cx="155" cy="178" rx="8" ry="3" fill="#006400" transform="rotate(15,155,178)" />
    <ellipse cx="145" cy="179" rx="8" ry="3" fill="#006400" transform="rotate(10,145,179)" />
    
    <!-- Leaves on branch 3 -->
    <ellipse cx="225" cy="155" rx="8" ry="3" fill="#006400" transform="rotate(-20,225,155)" />
    <ellipse cx="235" cy="150" rx="8" ry="3" fill="#006400" transform="rotate(-20,235,150)" />
    <ellipse cx="245" cy="148" rx="8" ry="3" fill="#006400" transform="rotate(-15,245,148)" />
    
    <!-- Leaves on branch 4 -->
    <ellipse cx="175" cy="125" rx="8" ry="3" fill="#006400" transform="rotate(20,175,125)" />
    <ellipse cx="165" cy="120" rx="8" ry="3" fill="#006400" transform="rotate(20,165,120)" />
    <ellipse cx="155" cy="118" rx="8" ry="3" fill="#006400" transform="rotate(15,155,118)" />
    
    <!-- Leaves on branch 5 -->
    <ellipse cx="210" cy="95" rx="8" ry="3" fill="#006400" transform="rotate(-20,210,95)" />
    <ellipse cx="220" cy="90" rx="8" ry="3" fill="#006400" transform="rotate(-20,220,90)" />
    
    <!-- Leaves on branch 6 -->
    <ellipse cx="190" cy="95" rx="8" ry="3" fill="#006400" transform="rotate(20,190,95)" />
    <ellipse cx="180" cy="90" rx="8" ry="3" fill="#006400" transform="rotate(20,180,90)" />
  </g>
  
  <!-- More detailed curry leaves clusters -->
  <g>
    <!-- Cluster 1 -->
    <g transform="translate(260,210) rotate(-10)">
      <ellipse cx="0" cy="0" rx="10" ry="4" fill="#006400" />
      <ellipse cx="0" cy="-5" rx="9" ry="3.5" fill="#006400" />
      <ellipse cx="0" cy="-10" rx="8" ry="3" fill="#006400" />
      <ellipse cx="0" cy="-15" rx="7" ry="2.5" fill="#006400" />
      <ellipse cx="0" cy="-19" rx="5" ry="2" fill="#006400" />
    </g>
    
    <!-- Cluster 2 -->
    <g transform="translate(140,180) rotate(10)">
      <ellipse cx="0" cy="0" rx="10" ry="4" fill="#006400" />
      <ellipse cx="0" cy="-5" rx="9" ry="3.5" fill="#006400" />
      <ellipse cx="0" cy="-10" rx="8" ry="3" fill="#006400" />
      <ellipse cx="0" cy="-15" rx="7" ry="2.5" fill="#006400" />
      <ellipse cx="0" cy="-19" rx="5" ry="2" fill="#006400" />
    </g>
    
    <!-- Cluster 3 -->
    <g transform="translate(250,150) rotate(-10)">
      <ellipse cx="0" cy="0" rx="10" ry="4" fill="#006400" />
      <ellipse cx="0" cy="-5" rx="9" ry="3.5" fill="#006400" />
      <ellipse cx="0" cy="-10" rx="8" ry="3" fill="#006400" />
      <ellipse cx="0" cy="-15" rx="7" ry="2.5" fill="#006400" />
    </g>
    
    <!-- Cluster 4 -->
    <g transform="translate(150,120) rotate(10)">
      <ellipse cx="0" cy="0" rx="10" ry="4" fill="#006400" />
      <ellipse cx="0" cy="-5" rx="9" ry="3.5" fill="#006400" />
      <ellipse cx="0" cy="-10" rx="8" ry="3" fill="#006400" />
      <ellipse cx="0" cy="-15" rx="7" ry="2.5" fill="#006400" />
    </g>
    
    <!-- Cluster 5 -->
    <g transform="translate(230,85) rotate(-10)">
      <ellipse cx="0" cy="0" rx="10" ry="4" fill="#006400" />
      <ellipse cx="0" cy="-5" rx="9" ry="3.5" fill="#006400" />
      <ellipse cx="0" cy="-10" rx="8" ry="3" fill="#006400" />
    </g>
    
    <!-- Cluster 6 -->
    <g transform="translate(170,85) rotate(10)">
      <ellipse cx="0" cy="0" rx="10" ry="4" fill="#006400" />
      <ellipse cx="0" cy="-5" rx="9" ry="3.5" fill="#006400" />
      <ellipse cx="0" cy="-10" rx="8" ry="3" fill="#006400" />
    </g>
    
    <!-- Top cluster -->
    <g transform="translate(200,80) rotate(0)">
      <ellipse cx="0" cy="0" rx="10" ry="4" fill="#006400" />
      <ellipse cx="0" cy="-5" rx="9" ry="3.5" fill="#006400" />
      <ellipse cx="0" cy="-10" rx="8" ry="3" fill="#006400" />
      <ellipse cx="0" cy="-15" rx="7" ry="2.5" fill="#006400" />
    </g>
  </g>
  
  <!-- Title -->
  <text x="200" y="380" font-family="Arial" font-size="20" text-anchor="middle" fill="#006400">Curry Leaves Plant</text>
</svg>